<svg preserveAspectRatio="none" width="100%" height="100%" overflow="visible" style="display: block;" viewBox="0 0 302 33" fill="none" xmlns="http://www.w3.org/2000/svg">
<g id="Group">
<path id="Vector" d="M94.1022 6.45121C94.1022 5.52961 94.1022 4.7104 94.5082 3.8912C94.8128 3.1744 95.2188 2.45759 95.7264 1.94559C96.234 1.43358 96.9445 1.02399 97.6551 0.716784C98.3657 0.409583 99.2793 0.307189 100.193 0.307189C101.107 0.307189 101.513 0.307192 102.02 0.614393C102.629 0.819194 103.137 1.12638 103.543 1.43358C104.05 1.74078 104.456 2.2528 104.761 2.6624C105.066 3.072 105.37 3.68639 105.573 4.3008L107.299 10.24L109.025 4.3008C109.228 3.68639 109.431 3.1744 109.837 2.6624C110.243 2.1504 110.547 1.74078 111.055 1.43358C111.562 1.12638 112.07 0.819194 112.679 0.614393C113.288 0.409592 113.897 0.307189 114.506 0.307189C115.42 0.307189 116.232 0.307182 117.044 0.716784C117.755 1.02399 118.465 1.43358 118.973 1.94559C119.48 2.45759 119.886 3.1744 120.191 3.8912C120.495 4.608 120.597 5.52961 120.597 6.45121V18.8416H115.623V6.0416C115.623 5.7344 115.623 5.42721 115.318 5.22241C115.115 5.01761 114.811 4.91521 114.405 4.91521C113.999 4.91521 113.694 5.12 113.593 5.5296L109.735 18.8416H104.863L101.005 5.5296C101.005 5.3248 100.802 5.2224 100.701 5.0176C100.497 5.0176 100.396 4.8128 100.193 4.8128C99.7869 4.8128 99.5839 4.9152 99.2793 5.12C99.0763 5.3248 98.9748 5.63201 98.9748 5.93921V18.7393H94.0007V6.5536C94.1022 6.5536 94.1022 6.45121 94.1022 6.45121Z" fill="var(--fill-0, white)"/>
<path id="Vector_2" d="M129.124 3.37922C129.53 2.35521 130.342 1.536 131.256 0.921597C132.271 0.307195 133.286 0 134.403 0C135.519 0 136.636 0.307195 137.55 0.921597C138.565 1.536 139.275 2.35521 139.681 3.37922L144.554 13.8241C145.265 15.3601 145.265 16.4865 144.757 17.4081C144.148 18.3297 143.031 18.7393 141.407 18.7393H131.154L134.098 14.1313H139.275L134.301 3.37922L127.195 18.6369H121.714C121.714 18.6369 127.5 7.47523 129.023 3.58401C130.545 -0.307201 129.023 3.37922 129.023 3.37922H129.124Z" fill="var(--fill-0, white)"/>
<path id="Vector_3" d="M149.63 8.90881C148.817 8.60161 148.208 7.98722 147.701 7.27042C147.193 6.55361 146.99 5.7344 146.99 4.8128C146.99 3.8912 146.99 3.48159 147.295 2.96959C147.599 2.45759 147.802 1.94559 148.208 1.53599C148.614 1.12639 149.021 0.819194 149.528 0.614393C150.036 0.409592 150.645 0.307189 151.355 0.307189H166.481V4.91521H152.066L164.044 10.24C164.856 10.5472 165.466 11.1616 165.973 11.8784C166.481 12.5952 166.684 13.4144 166.684 14.336C166.684 15.2576 166.582 15.6672 166.379 16.1792C166.176 16.6912 165.872 17.2032 165.466 17.6128C165.059 18.0224 164.653 18.3297 164.044 18.5345C163.537 18.7393 162.928 18.8416 162.319 18.8416H147.396V14.2336H161.507L149.63 8.90881Z" fill="var(--fill-0, white)"/>
<path id="Vector_4" d="M171.049 0.512002H191.859L188.915 5.12002H182.215V18.8417H177.241V5.12002H168.105L171.049 0.512002Z" fill="var(--fill-0, white)"/>
<path id="Vector_5" d="M200.792 18.8417C199.472 18.8417 198.254 18.6369 197.137 18.2273C196.021 17.8177 195.107 17.2033 194.295 16.3841C193.483 15.5649 192.874 14.6433 192.468 13.5168C192.062 12.3904 191.859 11.1616 191.859 9.83044C191.859 8.49924 192.062 7.16802 192.468 6.04162C192.874 4.91521 193.483 3.89122 194.295 3.17442C195.107 2.35521 196.021 1.74081 197.036 1.33121C198.153 0.921606 199.269 0.614408 200.589 0.614408H213.684L210.74 5.22243H201.096C199.777 5.22243 198.66 5.63202 197.95 6.45123C197.137 7.27043 196.731 8.39683 196.731 9.72804C196.731 11.0592 196.731 11.0592 197.036 11.6736C197.34 12.288 197.544 12.6976 197.95 13.1073C198.356 13.5169 198.762 13.824 199.371 14.0288C199.878 14.2336 200.487 14.3361 201.198 14.3361H212.973L210.03 18.9441H200.792V18.8417ZM197.848 11.9808L200.792 7.37282H211.857L208.913 11.9808H197.848Z" fill="var(--fill-0, white)"/>
<path id="Vector_6" d="M228.2 14.2336H221.196L224.241 9.62563H229.52C230.129 9.62563 230.738 9.42084 231.144 9.01124C231.55 8.60163 231.753 8.08963 231.753 7.37282C231.753 6.65602 231.55 6.14403 231.144 5.73443C230.738 5.32483 230.231 5.12002 229.52 5.12002H220.688V18.8417H215.714V0.512002H229.926C230.941 0.512002 231.855 0.614396 232.667 0.921597C233.479 1.2288 234.19 1.6384 234.799 2.25281C235.408 2.86721 235.814 3.48162 236.22 4.40322C236.524 5.22242 236.727 6.14403 236.727 7.27043C236.727 8.39684 236.423 10.0352 235.712 10.8544C235.103 11.776 234.19 12.3904 232.971 12.6976L237.235 18.8417H231.449L228.302 14.2336H228.2Z" fill="var(--fill-0, white)"/>
<path id="Vector_7" d="M239.671 0.512002H253.375C254.391 0.512002 255.304 0.716803 256.116 1.024C256.928 1.3312 257.639 1.8432 258.248 2.4576C258.857 3.07201 259.263 3.78882 259.669 4.71042C259.974 5.52963 260.177 6.55362 260.177 7.57762C260.177 8.60163 259.974 9.72803 259.669 10.6496C259.365 11.5712 258.857 12.2881 258.248 12.9025C257.639 13.5169 256.928 14.0289 256.116 14.3361C255.304 14.6433 254.391 14.8481 253.375 14.8481H245.153L248.198 10.24H252.969C253.68 10.24 254.188 10.0352 254.594 9.52324C255 9.01124 255.203 8.39682 255.203 7.57762C255.203 6.75842 255 6.34882 254.594 5.83682C254.188 5.32482 253.68 5.12002 252.969 5.12002H244.645V18.8417H239.671V0.512002Z" fill="var(--fill-0, white)"/>
<path id="Vector_8" d="M281.19 14.2336L278.246 18.8417H268.196C267.283 18.8417 266.572 18.7393 265.862 18.4321C265.151 18.1249 264.542 17.7153 264.034 17.2033C263.527 16.6913 263.121 16.0769 262.816 15.3601C262.512 14.6433 262.41 13.824 262.41 13.0048V0.512002H267.384V12.288C267.384 12.9024 267.587 13.4144 267.892 13.7216C268.298 14.1312 268.704 14.2336 269.313 14.2336H281.19Z" fill="var(--fill-0, white)"/>
<path id="Vector_9" d="M287.484 13.0048L278.043 0.512002H284.235L290.022 8.49923L295.808 0.512002H302L292.458 13.0048V18.8417H287.484V13.0048Z" fill="var(--fill-0, white)"/>
<path id="Vector_10" d="M102.832 24.8833V25.9073H95.7264C95.1173 25.9073 94.6097 26.4193 94.6097 27.0337C94.6097 27.6481 95.1173 28.1601 95.7264 28.1601H100.904C102.122 28.1601 103.137 29.0817 103.137 30.4129C103.137 31.7441 102.223 32.6657 100.904 32.6657H93.3916V31.6417H100.701C101.31 31.6417 101.817 31.1297 101.817 30.5153C101.817 29.9009 101.31 29.3889 100.701 29.3889H95.5234C94.3052 29.3889 93.2901 28.4673 93.2901 27.1361C93.2901 25.8049 94.2037 24.8833 95.5234 24.8833H102.832Z" fill="var(--fill-0, white)"/>
<path id="Vector_11" d="M111.461 24.8833C113.694 24.8833 115.318 26.6241 115.318 28.7745C115.318 30.9249 113.593 32.6657 111.461 32.6657H108.314C106.081 32.6657 104.456 30.9249 104.456 28.7745C104.456 26.6241 106.182 24.8833 108.314 24.8833H111.461ZM105.776 28.8769C105.776 30.5153 106.994 31.7441 108.618 31.7441H111.359C112.984 31.7441 114.202 30.5153 114.202 28.8769C114.202 27.2385 112.984 26.0097 111.359 26.0097H108.618C106.994 26.0097 105.776 27.2385 105.776 28.8769Z" fill="var(--fill-0, white)"/>
<path id="Vector_12" d="M117.856 24.8833V31.6417H125.165V32.6657H116.638V24.8833H117.856Z" fill="var(--fill-0, white)"/>
<path id="Vector_13" d="M128.109 24.8833V28.7745C128.109 30.4129 129.327 31.6417 130.951 31.6417H133.185C134.809 31.6417 136.027 30.4129 136.027 28.7745V24.8833H137.245V28.7745C137.245 31.0273 135.519 32.6657 133.388 32.6657H130.748C128.515 32.6657 126.891 30.9249 126.891 28.7745V24.8833H128.109Z" fill="var(--fill-0, white)"/>
<path id="Vector_14" d="M148.513 24.8833V25.9073H144.249V32.6657H143.031V25.9073H138.768V24.8833H148.513Z" fill="var(--fill-0, white)"/>
<path id="Vector_15" d="M151.152 24.8833V32.6657H149.934V24.8833H151.152Z" fill="var(--fill-0, white)"/>
<path id="Vector_16" d="M159.476 24.8833C161.71 24.8833 163.334 26.6241 163.334 28.7745C163.334 30.9249 161.608 32.6657 159.476 32.6657H156.329C154.096 32.6657 152.472 30.9249 152.472 28.7745C152.472 26.6241 154.198 24.8833 156.329 24.8833H159.476ZM153.69 28.8769C153.69 30.5153 154.908 31.7441 156.532 31.7441H159.273C160.897 31.7441 162.116 30.5153 162.116 28.8769C162.116 27.2385 160.897 26.0097 159.273 26.0097H156.532C154.908 26.0097 153.69 27.2385 153.69 28.8769Z" fill="var(--fill-0, white)"/>
<path id="Vector_17" d="M165.466 24.8833L173.079 31.1297V24.8833H174.297V32.6657H173.384L165.77 26.4193V32.6657H164.552V24.8833H165.466Z" fill="var(--fill-0, white)"/>
<path id="Vector_18" d="M185.565 24.8833V25.9073H178.459C177.85 25.9073 177.343 26.4193 177.343 27.0337C177.343 27.6481 177.85 28.1601 178.459 28.1601H183.636C184.854 28.1601 185.87 29.0817 185.87 30.4129C185.87 31.7441 184.956 32.6657 183.636 32.6657H176.124V31.6417H183.433C184.042 31.6417 184.55 31.1297 184.55 30.5153C184.55 29.9009 184.042 29.3889 183.433 29.3889H178.256C177.038 29.3889 176.023 28.4673 176.023 27.1361C176.023 25.8049 176.936 24.8833 178.256 24.8833H185.565Z" fill="var(--fill-0, white)"/>
<path id="Vector_19" d="M35.7324 8.08961C37.5597 7.88481 39.0824 7.78242 41.0111 7.78242V17.1008H49.8427C51.1624 17.1008 52.3805 16.9984 53.7002 16.5888C55.6289 15.9744 56.8471 14.336 56.9486 12.288C56.9486 10.24 56.9486 10.3424 56.5425 9.52322C56.1365 8.70402 55.2229 7.4752 54.1062 7.0656C52.9896 6.656 51.7714 6.3488 50.4518 6.3488H35.9355C34.4128 6.3488 32.8901 7.16801 31.9765 8.39681L22.6373 22.1185C21.9267 23.1425 20.8101 23.5521 19.795 23.6545C18.7798 23.7569 17.6632 23.0401 16.8511 22.2209L12.9936 16.5888L7.30891 8.19201V32.7681H4.33636e-07V7.47521C4.33636e-07 5.83681 0.507565 4.4032 1.42118 3.07199C3.14689 0.511985 6.29378 -0.614425 9.13613 0.409579C10.3543 0.92158 11.3694 1.74079 12.1815 2.8672L19.6934 13.7216L27.5099 2.6624C28.7281 1.02399 30.4538 0.20479 32.3825 0.10239C34.3113 -1.03843e-05 34.5143 0.10239 35.6309 0.10239H48.32C51.5684 0.10239 54.1062 0.102378 57.2531 1.43358C60.4 2.76479 63.0393 5.7344 63.7499 9.42081C64.8666 14.9504 62.5318 20.3777 57.1516 22.5281C55.3244 23.2449 53.4971 23.5521 51.4669 23.7569H40.9096V32.8705H32.6871V10.8544C32.8901 9.42082 34.0067 8.29441 35.4279 8.08961H35.7324Z" fill="var(--fill-0, #C89B3D)"/>
<path id="Vector_20" d="M73.6982 32.9729H45.6807C46.0867 30.5153 47.5079 28.4673 49.9442 27.7505C52.3805 27.0337 52.279 27.2385 53.4971 27.2385H72.48C74.3072 27.2385 77.2511 26.9313 78.3677 25.4977C79.4844 24.0641 79.2813 22.5281 78.3677 21.2993C77.4541 20.0705 76.845 20.0705 75.9314 19.7633C72.48 18.4321 69.1301 18.2273 65.8817 16.1793C66.6938 13.2096 66.5923 9.42083 65.5771 6.65602C65.1711 5.52962 64.562 4.60802 63.9529 3.58401C65.3741 1.1264 68.9271 0.102407 71.5664 0.102407H85.5751C85.0676 4.30082 81.9207 6.14402 78.0632 6.14402H73.1906C71.3634 6.14402 69.0286 6.75843 69.2316 9.01124C69.4346 11.264 69.7392 10.9568 70.2467 11.264C70.7543 11.5712 71.4649 11.8784 72.1755 12.0832L76.3375 13.312C78.0632 13.824 79.7889 14.336 81.4131 15.2576C83.7479 16.4865 85.3721 18.5345 85.8797 21.1969C86.3872 23.8593 85.9812 27.9553 83.5449 30.2081C81.2101 32.1537 81.3116 32.0513 79.8904 32.4609C77.3526 33.1777 73.6982 32.9729 73.6982 32.9729Z" fill="var(--fill-0, #C89B3D)"/>
</g>
</svg>
