<svg width="521" height="521" viewBox="0 0 521 521" fill="none" xmlns="http://www.w3.org/2000/svg">
<path d="M220.815 215.228C230.627 214.128 238.804 213.579 249.162 213.579V263.62H296.589C303.675 263.62 310.217 263.07 317.304 260.87C327.661 257.571 334.203 248.772 334.748 237.774C334.748 226.776 334.748 227.326 332.568 222.927C330.387 218.528 325.481 211.929 319.484 209.729C313.488 207.53 306.946 205.88 299.859 205.88H221.905C213.728 205.88 205.551 210.279 200.645 216.878L150.493 290.565C146.677 296.064 140.68 298.263 135.229 298.813C129.778 299.363 123.781 295.514 119.42 291.115L98.7049 260.87L68.1774 215.778V347.755H28.9277V211.929C28.9277 203.13 31.6534 195.432 36.5596 188.283C45.8269 174.535 62.7261 168.487 77.9898 173.986C84.5314 176.735 89.9828 181.134 94.3439 187.183L134.684 245.473L176.659 186.083C183.201 177.285 192.468 172.886 202.826 172.336C213.183 171.786 214.273 172.336 220.27 172.336H288.412C305.856 172.336 319.484 172.336 336.383 179.485C353.283 186.633 367.456 202.58 371.272 222.377C377.269 252.072 364.73 281.216 335.838 292.764C326.026 296.614 316.214 298.263 305.311 299.363H248.617V348.304H204.461V230.076C205.551 222.377 211.548 216.328 219.18 215.228H220.815Z" fill="#C89B3D"/>
<path d="M424.695 348.854H274.238C276.419 335.657 284.051 324.659 297.134 320.809C310.217 316.96 309.672 318.06 316.214 318.06H418.154C427.966 318.06 443.775 316.41 449.772 308.712C455.768 301.013 454.678 292.764 449.772 286.166C444.865 279.567 441.595 279.567 436.688 277.917C418.154 270.768 400.164 269.669 382.72 258.67C387.081 242.723 386.536 222.377 381.085 207.53C378.904 201.481 375.633 196.532 372.362 191.033C379.994 177.835 399.074 172.336 413.248 172.336H488.476C485.75 194.882 468.851 204.78 448.136 204.78H421.97C412.157 204.78 399.619 208.08 400.709 220.177C401.8 232.275 403.435 230.625 406.161 232.275C408.886 233.925 412.702 235.575 416.518 236.674L438.869 243.273C448.136 246.023 457.403 248.772 466.126 253.721C478.664 260.32 487.386 271.318 490.111 285.616C492.837 299.913 490.657 321.909 477.573 334.007C465.035 344.455 465.58 343.905 457.949 346.105C444.32 349.954 424.695 348.854 424.695 348.854Z" fill="#C89B3D"/>
</svg>
